<?xml version="1.0" standalone="no"?>
<!DOCTYPE svg PUBLIC "-//W3C//DTD SVG 20010904//EN"
 "http://www.w3.org/TR/2001/REC-SVG-20010904/DTD/svg10.dtd">
<svg version="1.0" xmlns="http://www.w3.org/2000/svg"
 width="500.000000pt" height="500.000000pt" viewBox="0 0 500.000000 500.000000"
 preserveAspectRatio="xMidYMid meet">
<metadata>
Created by potrace 1.14, written by Peter Selinger 2001-2017
</metadata>
<g transform="translate(0.000000,500.000000) scale(0.100000,-0.100000)"
fill="#000000" stroke="none">
<path d="M3936 3948 c-37 -40 -56 -88 -35 -88 5 0 9 -4 9 -10 0 -5 16 -27 35
-47 19 -20 33 -39 31 -41 -3 -2 13 -20 35 -40 21 -20 39 -41 39 -47 0 -6 13
-22 29 -35 15 -14 26 -31 24 -37 -3 -7 0 -13 7 -13 6 0 18 -7 26 -15 9 -8 12
-15 7 -15 -4 0 8 -14 27 -31 19 -17 29 -28 23 -25 -7 4 -13 2 -13 -3 0 -6 5
-11 11 -11 10 0 44 -29 37 -31 -2 -1 -73 -2 -158 -4 -85 -1 -171 -5 -190 -9
-51 -11 -142 -69 -254 -162 -109 -91 -156 -119 -187 -109 -36 12 -81 69 -197
254 -174 278 -230 341 -300 341 -53 0 -127 -85 -265 -303 -65 -102 -137 -207
-161 -233 l-42 -47 -43 49 c-24 27 -79 108 -123 179 -186 301 -234 355 -320
355 -49 0 -127 -88 -222 -250 -146 -250 -214 -338 -280 -360 -76 -25 -132 32
-291 295 -149 246 -212 315 -284 315 -77 0 -128 -56 -294 -325 -58 -93 -124
-189 -146 -212 -40 -42 -41 -43 -42 -120 -2 -151 -1 -162 20 -160 11 0 17 5
15 9 -3 4 2 8 11 8 9 0 13 5 10 10 -4 6 -3 10 2 9 21 -4 32 3 38 21 4 11 11
17 17 14 8 -5 9 -1 5 10 -4 9 -3 15 2 12 5 -3 12 1 15 10 3 8 11 12 17 8 8 -4
9 -3 5 5 -4 7 2 20 16 32 13 11 16 18 8 14 -8 -4 -4 3 9 14 13 12 20 21 17 21
-4 0 6 19 22 43 16 23 32 50 35 60 4 11 12 15 18 11 7 -4 9 -3 5 4 -3 6 -2 13
4 17 6 4 8 11 5 16 -4 5 -1 9 4 9 6 0 11 7 11 16 0 9 5 12 12 8 6 -4 8 -3 4 4
-3 6 0 17 8 25 8 8 12 17 9 21 -4 3 -1 6 5 6 7 0 12 7 12 15 0 8 5 15 10 15 6
0 10 7 10 15 0 8 4 15 8 15 4 0 16 13 25 29 10 17 26 32 36 36 10 3 21 15 24
27 5 17 9 19 20 10 8 -7 17 -9 20 -5 4 3 7 1 7 -5 0 -7 5 -12 11 -12 12 0 68
-60 70 -75 1 -5 0 -14 -1 -20 -1 -5 2 -7 6 -2 10 10 45 -44 37 -57 -3 -6 -3
-8 2 -4 5 5 17 -11 27 -34 11 -23 24 -45 29 -49 6 -3 11 -13 13 -22 1 -9 11
-27 22 -40 10 -13 20 -30 22 -38 2 -8 8 -16 13 -17 5 -2 7 -8 3 -13 -3 -5 2
-9 10 -9 9 0 16 -7 16 -15 0 -16 8 -28 45 -68 11 -12 20 -26 20 -32 0 -5 9 -9
19 -7 11 2 15 -1 11 -7 -3 -6 -1 -11 5 -11 6 0 18 -7 27 -16 9 -8 22 -13 30
-10 8 3 11 1 8 -4 -5 -9 42 -16 70 -10 5 1 22 2 37 2 15 1 37 10 48 20 11 10
20 16 20 13 0 -13 78 71 105 113 15 23 32 42 38 42 6 0 7 3 4 6 -4 4 2 19 12
33 10 14 19 28 19 31 2 20 16 39 25 33 6 -4 8 0 4 10 -3 10 -2 17 3 17 6 0 10
6 10 14 0 8 7 22 16 30 9 9 17 23 18 30 1 8 8 21 15 30 7 9 10 16 6 16 -5 0 2
8 13 19 12 10 19 21 15 25 -3 3 0 6 7 6 7 0 11 2 8 5 -3 3 12 25 34 48 32 34
40 39 48 27 8 -12 10 -12 10 5 1 18 1 19 11 3 5 -10 17 -18 25 -18 8 0 12 -4
9 -10 -3 -5 -1 -10 5 -10 15 0 41 -26 33 -34 -3 -3 2 -8 11 -12 9 -3 16 -12
16 -20 0 -8 5 -14 11 -14 5 0 8 -4 5 -9 -3 -5 1 -11 9 -15 8 -3 15 -12 15 -21
0 -8 5 -15 12 -15 6 0 8 -3 5 -6 -4 -4 5 -20 18 -36 14 -16 23 -34 19 -39 -3
-5 -1 -9 4 -9 5 0 17 -12 27 -26 11 -18 13 -24 4 -19 -8 5 -4 -3 9 -17 12 -13
22 -30 22 -37 0 -7 5 -9 10 -6 6 3 10 -3 10 -15 0 -11 7 -23 15 -26 9 -4 20
-15 26 -26 9 -16 8 -19 -3 -13 -7 3 -5 0 5 -8 9 -8 17 -20 17 -27 0 -7 3 -11
6 -7 7 6 34 -16 34 -28 0 -12 27 -34 34 -28 3 4 6 -1 6 -10 0 -9 5 -19 12 -23
7 -4 8 -3 4 4 -5 8 -2 10 8 6 9 -3 14 -10 11 -14 -7 -12 58 -6 83 8 12 7 19
18 16 24 -4 7 -3 8 4 4 7 -4 12 -2 12 4 0 6 5 8 10 5 6 -3 10 -1 10 5 0 6 4 9
8 6 5 -3 9 1 9 9 0 8 -5 11 -11 8 -6 -4 -5 1 3 10 7 9 17 15 21 12 5 -3 11 4
15 15 4 11 11 17 17 14 7 -4 8 -2 4 5 -8 13 18 44 28 33 4 -3 4 0 1 9 -3 8 5
28 19 44 14 16 23 32 20 37 -3 4 2 11 10 14 9 3 16 12 16 20 0 8 5 14 11 14 5
0 7 5 4 10 -3 6 -2 10 3 10 5 0 15 14 22 30 7 17 16 30 21 30 5 0 11 11 15 25
3 14 10 25 15 25 5 0 9 5 9 10 0 6 12 22 26 35 15 14 24 25 20 25 -3 0 3 9 14
20 11 11 20 25 20 31 0 5 5 7 10 4 6 -3 10 -1 10 5 0 7 7 5 16 -4 8 -9 20 -16
25 -16 6 0 8 -4 5 -8 -3 -5 3 -16 12 -25 27 -25 43 -47 35 -47 -4 0 1 -6 12
-13 12 -9 15 -19 10 -28 -5 -8 -4 -11 0 -6 11 9 46 -43 38 -56 -3 -6 -1 -7 5
-3 7 4 12 1 12 -8 0 -9 5 -16 11 -16 5 0 8 -4 5 -9 -3 -5 1 -11 9 -15 8 -3 15
-12 15 -21 0 -8 5 -15 12 -15 6 0 9 -3 5 -6 -3 -4 1 -13 9 -21 8 -8 12 -18 9
-23 -3 -4 2 -10 10 -14 8 -3 15 -13 15 -21 0 -10 5 -13 12 -9 8 5 9 2 5 -10
-4 -9 -3 -14 2 -11 5 3 12 -4 16 -15 4 -11 11 -17 17 -14 7 5 9 1 5 -9 -3 -10
-2 -17 4 -17 6 0 7 -5 3 -12 -5 -8 -2 -9 9 -5 10 4 16 2 14 -6 -1 -7 4 -11 11
-10 11 3 16 -10 13 -30 -1 -5 2 -6 7 -3 5 3 18 -3 29 -14 12 -10 24 -16 27
-13 3 4 6 1 6 -6 0 -8 8 -11 20 -8 11 3 23 0 26 -5 4 -6 11 -4 17 7 8 14 11
15 18 4 7 -11 9 -11 9 -1 0 7 5 10 10 7 6 -3 10 -1 10 5 0 6 4 9 9 5 6 -3 14
3 20 12 6 11 11 13 11 5 0 -7 13 1 30 18 16 16 34 30 40 30 6 0 8 5 5 10 -4 6
-3 9 2 8 14 -4 54 23 48 33 -4 5 -1 9 5 9 7 0 19 8 28 18 10 10 13 11 7 2 -9
-13 -8 -13 8 -1 9 7 17 20 17 28 0 8 5 11 10 8 6 -3 10 -1 10 5 0 7 7 10 15 6
8 -3 14 -2 14 2 -3 20 2 33 11 27 6 -3 10 -2 10 3 0 5 9 12 21 15 14 4 18 10
13 18 -5 9 -2 10 10 6 19 -7 60 15 49 26 -3 4 -1 7 5 7 7 0 12 -5 12 -11 0 -8
5 -7 15 1 9 7 18 10 22 7 3 -4 12 -2 19 4 8 7 14 7 18 0 4 -7 15 -7 31 -1 17
6 27 5 36 -6 9 -11 15 -12 25 -3 9 7 34 10 64 7 27 -3 47 -2 45 2 -6 10 33 5
42 -5 5 -4 2 -5 -4 -1 -8 4 -13 2 -13 -6 0 -8 -37 -59 -82 -115 -214 -261
-233 -286 -234 -309 -1 -14 5 -24 13 -24 8 0 11 -4 8 -10 -3 -5 1 -10 10 -10
11 0 15 -5 11 -16 -3 -8 -2 -12 4 -9 6 3 10 1 10 -5 0 -6 5 -8 10 -5 6 3 10
-1 10 -9 0 -10 6 -13 15 -10 8 4 13 9 10 13 -5 10 31 41 39 34 3 -4 6 1 6 11
0 9 5 14 10 11 9 -6 14 8 11 28 -1 7 15 11 33 8 5 -1 6 5 3 14 -4 8 -2 15 4
15 6 0 17 7 25 15 9 8 13 15 10 15 -3 0 2 8 12 18 9 11 20 17 24 15 4 -2 9 6
13 17 4 11 11 18 16 15 5 -4 9 1 9 9 0 9 11 23 25 32 14 9 22 20 19 25 -3 5 0
8 8 7 7 -2 12 3 11 10 -3 11 9 16 29 13 4 0 4 7 1 17 -3 9 -3 14 1 10 11 -9
36 14 28 26 -3 5 2 6 12 3 10 -4 15 -3 11 3 -6 9 21 45 34 45 3 0 5 4 3 9 -2
5 5 6 14 2 14 -5 15 -4 4 9 -12 15 -4 20 23 16 4 0 7 6 7 14 0 8 4 15 8 15 5
0 14 11 22 24 8 16 18 22 28 18 11 -4 14 -1 9 11 -4 11 -1 17 9 17 8 0 20 11
26 25 6 14 15 25 20 25 32 0 -33 72 -438 488 l-149 152 -39 -42z"/>
<path d="M3952 2694 c-12 -13 -20 -24 -16 -24 4 0 -5 -9 -20 -21 -24 -19 -38
-48 -16 -34 6 3 10 -1 10 -9 0 -9 5 -16 10 -16 13 0 13 6 -1 33 -9 19 -7 18
10 -3 11 -13 16 -27 12 -30 -21 -15 -50 -70 -46 -88 2 -11 23 -40 47 -63 24
-23 36 -38 28 -33 -10 5 -9 2 2 -8 10 -9 18 -20 18 -25 0 -4 9 -14 20 -21 11
-7 20 -19 20 -28 0 -8 5 -12 10 -9 6 3 10 1 10 -5 0 -6 10 -22 23 -35 38 -42
46 -53 40 -59 -4 -3 1 -6 10 -6 15 0 22 -11 18 -32 0 -5 4 -8 10 -8 12 0 44
-30 32 -30 -4 -1 6 -12 22 -25 17 -14 26 -25 20 -26 -5 -1 -84 -2 -175 -4
-180 -3 -202 -8 -295 -70 -27 -18 -79 -59 -115 -90 -129 -113 -176 -137 -217
-110 -42 28 -64 59 -190 259 -75 120 -142 214 -183 258 -58 61 -69 68 -103 68
-33 0 -46 -8 -91 -52 -28 -29 -79 -95 -111 -146 -142 -222 -215 -329 -243
-355 l-29 -28 -42 48 c-23 26 -74 99 -113 163 -194 314 -244 370 -330 370 -51
0 -126 -87 -242 -285 -116 -195 -171 -269 -229 -308 -90 -61 -146 -12 -322
278 -149 244 -213 315 -284 315 -76 0 -121 -49 -281 -305 -65 -104 -138 -210
-161 -235 l-41 -45 1 -110 c2 -145 1 -138 21 -120 9 8 20 12 23 9 4 -4 9 1 13
10 3 9 10 14 14 11 5 -3 11 4 15 15 4 11 10 18 14 15 5 -2 13 7 20 21 6 15 16
22 23 18 7 -4 8 -3 4 4 -4 7 -2 12 4 12 6 0 8 5 5 10 -3 6 1 13 9 16 9 3 16
12 16 20 0 8 5 14 11 14 5 0 7 5 4 10 -3 6 -1 10 4 10 6 0 11 6 11 14 0 8 7
17 16 20 8 3 12 10 9 16 -3 5 -1 10 5 10 6 0 9 4 5 9 -3 6 0 13 7 18 7 4 24
29 37 56 13 26 27 47 32 47 4 0 12 14 18 31 7 19 15 28 22 23 7 -4 9 -3 5 4
-3 6 -2 13 4 17 5 3 10 15 10 26 0 11 4 18 8 15 5 -3 16 8 26 25 9 16 21 29
27 29 5 0 9 8 9 18 0 14 2 15 10 2 9 -13 10 -13 10 0 0 9 10 15 25 15 14 0 25
-4 25 -9 0 -4 7 -5 16 -2 8 3 13 2 10 -2 -3 -5 4 -15 15 -22 10 -8 19 -20 19
-27 0 -6 8 -17 18 -22 9 -6 13 -11 9 -11 -5 0 -2 -7 5 -15 23 -26 33 -40 36
-55 2 -8 8 -18 14 -21 6 -4 7 -12 3 -19 -5 -9 -4 -11 3 -6 7 4 12 2 12 -4 0
-6 11 -28 25 -50 14 -22 22 -40 18 -40 -5 0 0 -5 10 -11 9 -6 15 -14 12 -20
-4 -5 -2 -9 3 -9 5 0 15 -13 22 -30 7 -16 16 -30 21 -30 5 0 9 -7 9 -15 0 -8
5 -15 10 -15 6 0 10 -7 10 -16 0 -8 5 -12 10 -9 6 3 10 -1 10 -9 0 -9 5 -16
10 -16 6 0 10 -7 10 -15 0 -8 3 -14 8 -13 4 2 17 -7 30 -20 12 -12 27 -20 32
-17 6 4 10 1 10 -5 0 -6 4 -9 9 -6 5 3 12 -1 15 -10 5 -14 9 -14 23 -3 9 8 14
9 10 3 -4 -7 6 -11 28 -11 19 0 32 5 28 10 -3 5 4 4 16 -2 17 -9 21 -9 19 1
-2 8 6 13 19 12 13 -1 20 2 18 6 -3 4 5 10 16 13 12 3 18 10 14 16 -3 6 -2 11
4 11 14 0 65 51 74 73 3 9 11 17 17 17 6 0 9 4 6 9 -3 5 1 12 10 15 9 4 14 9
11 13 -4 3 1 12 11 20 10 9 11 12 2 7 -15 -8 14 33 35 48 6 4 6 8 1 8 -5 0 -1
9 9 20 10 11 14 20 9 20 -5 0 -2 6 7 13 16 12 19 18 19 38 0 5 5 7 12 3 7 -4
8 -3 4 5 -5 7 3 26 18 45 14 19 22 36 19 40 -4 3 -1 6 6 6 7 0 9 5 6 10 -3 6
-1 10 6 10 7 0 9 3 6 7 -4 3 2 13 13 20 11 8 18 19 15 24 -4 5 1 9 10 9 9 0
13 4 10 10 -4 6 1 7 11 3 14 -5 16 -3 11 11 -4 9 -3 15 2 11 5 -3 12 -1 16 5
4 6 13 5 25 -2 10 -7 16 -17 12 -23 -3 -5 3 -3 13 5 11 9 16 10 11 2 -4 -7 -1
-15 8 -18 9 -3 16 -13 16 -21 0 -8 4 -12 9 -9 5 3 12 -5 15 -19 4 -14 14 -25
22 -25 11 0 15 -6 11 -20 -3 -13 0 -20 9 -20 8 0 14 -7 14 -15 0 -8 4 -15 9
-15 5 0 12 -11 15 -25 4 -14 11 -25 17 -25 6 0 7 -4 4 -10 -3 -5 -1 -10 5 -10
6 0 9 -4 6 -9 -3 -5 1 -11 9 -15 8 -3 15 -15 15 -27 0 -12 3 -19 6 -16 9 9 43
-55 36 -67 -3 -5 -1 -6 5 -3 5 4 16 -6 24 -21 8 -15 22 -36 31 -46 10 -10 15
-23 12 -28 -3 -5 0 -7 8 -6 7 2 12 -3 10 -9 -1 -7 5 -13 15 -13 9 0 14 -3 10
-6 -7 -7 55 -69 78 -78 11 -4 14 -2 9 7 -6 9 -4 9 7 1 16 -13 49 -15 49 -2 0
4 6 7 13 6 6 -2 11 2 10 9 -2 6 6 15 17 18 11 4 20 11 20 17 0 5 6 8 14 5 10
-4 14 0 11 14 -2 12 2 19 11 19 8 0 12 5 9 10 -3 6 -2 10 2 10 5 0 17 16 27
35 10 19 22 33 26 30 3 -2 12 12 19 31 7 20 17 32 23 28 7 -5 9 -1 5 9 -3 10
-2 17 3 17 5 0 16 18 26 40 10 21 21 37 26 34 4 -3 8 0 8 7 0 7 8 21 18 32 12
15 13 18 2 12 -8 -4 -6 1 5 12 11 11 23 19 27 16 4 -2 5 6 3 17 -2 12 3 24 16
30 10 6 19 17 19 25 0 8 7 15 16 15 8 0 12 5 9 10 -3 6 1 13 9 16 9 3 14 10
11 14 -10 16 27 19 56 5 16 -9 29 -18 29 -21 0 -3 -6 -2 -12 1 -7 4 -5 0 5 -8
9 -8 17 -19 17 -25 0 -5 7 -13 16 -16 8 -3 12 -10 9 -16 -3 -6 1 -13 9 -16 9
-3 14 -10 11 -14 -3 -4 2 -11 11 -14 8 -3 12 -10 9 -16 -3 -5 -1 -10 4 -10 6
0 11 -7 11 -15 0 -8 4 -15 9 -15 10 0 27 -39 23 -53 -1 -5 2 -6 7 -3 5 4 17
-9 27 -29 9 -19 21 -35 27 -35 6 0 7 -3 4 -7 -4 -4 4 -19 18 -33 14 -15 27
-37 28 -48 0 -12 3 -19 5 -17 5 4 32 -20 32 -29 0 -2 21 -26 47 -53 25 -26 43
-41 38 -33 -5 9 1 7 14 -5 25 -22 82 -29 93 -11 6 8 8 7 8 -2 0 -10 5 -10 20
-2 12 7 18 16 13 23 -4 7 2 5 12 -3 11 -9 16 -10 11 -2 -4 6 -2 13 3 13 6 1
14 2 19 3 8 1 28 17 67 54 14 13 25 20 25 17 0 -3 8 3 18 13 11 9 17 20 15 25
-2 4 3 7 12 7 15 0 67 44 60 51 -2 2 9 13 23 24 17 12 23 14 17 4 -5 -8 1 -3
14 11 13 14 20 18 16 10 -3 -8 1 -6 9 4 9 11 16 16 16 11 0 -5 7 0 15 11 8 10
15 15 15 10 0 -5 8 -2 17 5 14 12 16 12 9 -1 -4 -8 -1 -7 8 4 8 10 19 15 25
12 6 -4 19 -2 30 4 13 7 22 7 26 0 4 -6 12 -7 18 -3 23 14 48 11 42 -6 -4 -11
0 -9 16 5 11 10 22 19 23 18 34 -19 46 -23 50 -15 7 10 31 9 42 -2 4 -3 15 -2
25 4 46 24 23 -9 -168 -245 -106 -130 -142 -181 -141 -199 2 -18 7 -23 18 -19
8 3 12 2 9 -2 -6 -7 16 -34 53 -64 13 -10 18 -9 29 5 13 17 12 17 -6 4 -11 -8
-4 1 15 21 19 19 38 33 42 31 4 -2 9 1 13 7 3 5 0 10 -7 10 -7 0 -5 5 6 12 35
20 68 53 93 91 13 21 27 36 31 33 9 -5 32 20 25 28 -4 3 -1 6 5 6 6 0 13 9 17
20 3 11 9 19 13 19 20 -3 33 2 27 10 -3 6 4 15 15 21 11 6 18 15 15 21 -4 5 1
9 9 9 8 0 17 9 21 20 3 11 12 19 18 17 7 -1 11 3 10 10 -1 6 5 17 14 25 14 11
16 11 8 -1 -5 -10 -4 -12 3 -7 7 4 12 12 12 18 0 6 27 37 60 69 33 32 60 63
60 68 0 5 9 13 21 16 11 4 18 9 15 12 -3 4 -1 12 5 20 13 15 3 25 -243 280
-43 44 -76 83 -73 86 3 4 2 5 -2 2 -10 -8 -63 57 -56 68 3 6 1 7 -5 3 -17 -10
-25 13 -10 32 12 15 11 16 -5 3 -16 -13 -22 -10 -58 25 -22 22 -37 44 -34 52
4 10 0 12 -10 8 -9 -3 -14 -2 -12 2 6 10 -30 42 -39 34 -4 -4 3 8 15 26 13 18
20 36 17 40 -4 3 -11 0 -16 -8 -8 -12 -11 -13 -22 -2 -11 11 -10 13 1 10 7 -2
16 3 18 10 3 6 0 12 -6 12 -6 0 -11 8 -11 17 0 9 -3 13 -7 10 -3 -4 -11 0 -17
7 -9 12 -15 10 -34 -10z m13 -33 c3 -5 2 -12 -3 -15 -5 -3 -9 1 -9 9 0 17 3
19 12 6z m0 -49 c-3 -3 -11 0 -18 7 -9 10 -8 11 6 5 10 -3 15 -9 12 -12z m45
-2 c0 -5 -2 -10 -4 -10 -3 0 -8 5 -11 10 -3 6 -1 10 4 10 6 0 11 -4 11 -10z"/>
<path d="M4041 2612 c-11 -20 -5 -32 24 -48 11 -6 20 -19 20 -29 0 -21 20 -31
30 -16 3 7 0 8 -10 5 -11 -4 -14 -2 -9 9 3 9 14 13 27 11 21 -4 21 -4 2 5 -11
5 -15 10 -8 10 9 1 -52 71 -63 71 -2 0 -8 -8 -13 -18z m63 -53 c-3 -5 -18 1
-35 13 -33 25 -36 30 -11 21 15 -6 16 -5 2 13 -8 10 0 6 18 -10 17 -16 29 -33
26 -37z"/>
<path d="M4070 2586 c0 -2 8 -10 18 -17 15 -13 16 -12 3 4 -13 16 -21 21 -21
13z"/>
<path d="M4130 2520 c0 -5 5 -10 10 -10 6 0 10 5 10 10 0 6 -4 10 -10 10 -5 0
-10 -4 -10 -10z"/>
<path d="M3391 2487 c-8 -10 -7 -14 2 -14 8 0 14 6 14 14 0 7 -1 13 -2 13 -2
0 -8 -6 -14 -13z"/>
<path d="M4115 2490 c3 -5 8 -10 11 -10 2 0 4 5 4 10 0 6 -5 10 -11 10 -5 0
-7 -4 -4 -10z"/>
<path d="M4147 2486 c-4 -10 -1 -13 8 -9 8 3 12 9 9 14 -7 12 -11 11 -17 -5z"/>
<path d="M1465 2479 c-4 -6 -5 -12 -2 -15 2 -3 7 2 10 11 7 17 1 20 -8 4z"/>
<path d="M2445 2480 c-3 -6 1 -7 9 -4 18 7 21 14 7 14 -6 0 -13 -4 -16 -10z"/>
<path d="M2490 2478 c0 -4 4 -8 9 -8 6 0 12 4 15 8 3 5 -1 9 -9 9 -8 0 -15 -4
-15 -9z"/>
<path d="M3470 2480 c0 -5 5 -10 11 -10 5 0 7 5 4 10 -3 6 -8 10 -11 10 -2 0
-4 -4 -4 -10z"/>
<path d="M440 2460 c-9 -6 -10 -10 -3 -10 6 0 15 5 18 10 8 12 4 12 -15 0z"/>
<path d="M1390 2456 c7 -7 13 -7 20 0 6 6 3 10 -10 10 -13 0 -16 -4 -10 -10z"/>
<path d="M3367 2459 c7 -7 15 -10 18 -7 3 3 -2 9 -12 12 -14 6 -15 5 -6 -5z"/>
<path d="M3336 2447 c3 -10 9 -15 12 -12 3 3 0 11 -7 18 -10 9 -11 8 -5 -6z"/>
<path d="M1436 2438 c3 -5 10 -6 15 -3 13 9 11 12 -6 12 -8 0 -12 -4 -9 -9z"/>
<path d="M2533 2425 c0 -8 4 -12 9 -9 5 3 6 10 3 15 -9 13 -12 11 -12 -6z"/>
<path d="M3413 2425 c0 -8 4 -12 9 -9 5 3 6 10 3 15 -9 13 -12 11 -12 -6z"/>
<path d="M3450 2419 c0 -5 5 -7 10 -4 6 3 10 8 10 11 0 2 -4 4 -10 4 -5 0 -10
-5 -10 -11z"/>
<path d="M1590 2399 c0 -5 5 -7 10 -4 6 3 10 8 10 11 0 2 -4 4 -10 4 -5 0 -10
-5 -10 -11z"/>
<path d="M3952 1324 c-12 -13 -19 -24 -15 -24 4 0 0 -5 -9 -11 -10 -5 -18 -15
-18 -20 0 -6 4 -7 10 -4 6 3 7 -1 3 -10 -4 -13 -8 -14 -14 -4 -4 8 -12 10 -16
5 -4 -4 3 -17 17 -28 14 -11 25 -25 25 -32 0 -6 7 -11 15 -11 8 0 15 -5 15
-12 0 -6 4 -15 9 -20 5 -5 6 -3 2 5 -4 6 -3 12 3 12 5 0 12 -6 15 -12 3 -7 3
-3 0 9 -3 15 -1 21 10 19 19 -3 34 -16 18 -16 -15 0 -16 -27 -1 -35 6 -4 9 0
7 10 -2 10 3 20 10 22 7 3 11 -1 10 -8 -4 -16 43 -41 57 -30 12 9 26 8 43 -3
11 -6 11 -11 0 -24 -9 -12 -6 -11 10 2 22 19 30 32 12 21 -10 -6 -42 48 -35
59 3 3 -1 2 -7 -4 -7 -5 -16 -10 -20 -10 -10 0 -6 23 5 31 4 3 -3 11 -16 18
-12 7 -27 22 -32 34 -6 12 -20 27 -33 33 -13 6 -22 13 -20 15 2 3 -6 14 -17
25 l-20 21 -23 -23z m21 -51 c-3 -7 -8 -13 -12 -13 -4 0 -8 6 -8 13 0 8 6 14
13 14 7 0 10 -6 7 -14z m37 -14 c0 -6 -4 -7 -10 -4 -5 3 -10 11 -10 16 0 6 5
7 10 4 6 -3 10 -11 10 -16z m50 -15 c0 -8 -5 -14 -11 -14 -5 0 -7 5 -4 10 4 6
1 19 -7 28 -12 15 -11 16 5 3 9 -7 17 -20 17 -27z m-33 -6 c-3 -8 -6 -5 -6 6
-1 11 2 17 5 13 3 -3 4 -12 1 -19z m-81 4 c-2 -4 4 -14 16 -21 18 -11 19 -10
13 8 -4 13 -2 21 5 21 6 0 8 -5 4 -12 -5 -7 -2 -9 9 -5 9 3 17 1 20 -6 2 -6
21 -11 43 -12 35 0 39 -3 39 -25 0 -17 6 -25 18 -24 9 1 17 -5 17 -13 0 -8 -4
-12 -9 -8 -5 3 -12 1 -16 -4 -7 -13 -50 2 -51 18 -1 6 -2 16 -3 22 0 5 -5 8
-10 4 -6 -3 -14 3 -20 12 -6 11 -11 13 -11 5 0 -7 -4 -11 -9 -7 -5 3 -13 1
-16 -5 -5 -8 -11 -8 -19 -1 -7 6 -15 9 -18 6 -2 -3 -5 1 -5 8 0 6 -4 20 -8 30
-4 10 -3 17 5 17 6 0 9 -4 6 -8z"/>
<path d="M3959 1208 c10 -14 16 -15 31 -5 11 6 17 13 15 16 -3 2 -11 -1 -18
-7 -10 -9 -17 -8 -27 1 -12 10 -12 9 -1 -5z"/>
<path d="M4030 1199 c0 -5 3 -8 8 -8 4 1 9 0 12 -1 20 -7 37 -6 37 4 0 6 -13
12 -29 13 -15 0 -28 -3 -28 -8z"/>
<path d="M4066 1162 c-2 -4 4 -9 15 -9 11 -1 17 2 14 8 -7 11 -22 12 -29 1z"/>
<path d="M3435 1120 c-3 -5 -1 -10 4 -10 6 0 11 5 11 10 0 6 -2 10 -4 10 -3 0
-8 -4 -11 -10z"/>
<path d="M4023 1114 c-17 -14 -17 -15 2 -6 11 5 26 7 33 5 17 -6 15 4 -2 10
-8 3 -22 -1 -33 -9z"/>
<path d="M439 1093 c-13 -16 -12 -17 4 -4 9 7 17 15 17 17 0 8 -8 3 -21 -13z"/>
<path d="M473 1103 c4 -3 1 -13 -6 -22 -11 -14 -10 -14 5 -2 16 12 16 31 1 31
-4 0 -3 -3 0 -7z"/>
<path d="M1465 1100 c-3 -6 1 -7 9 -4 18 7 21 14 7 14 -6 0 -13 -4 -16 -10z"/>
<path d="M4194 1093 c16 -20 36 -23 36 -6 0 4 -3 3 -7 0 -3 -4 -16 1 -27 10
-21 18 -21 18 -2 -4z"/>
<path d="M1415 1090 c-4 -6 -11 -7 -17 -4 -7 4 -8 2 -4 -5 6 -9 11 -9 22 0 14
11 18 19 10 19 -3 0 -8 -5 -11 -10z"/>
<path d="M3415 1090 c-4 -6 -10 -8 -14 -6 -4 3 -8 -1 -8 -9 0 -13 4 -12 19 2
18 16 22 23 14 23 -3 0 -8 -5 -11 -10z"/>
<path d="M496 1082 c-3 -4 4 -9 15 -9 23 -2 25 3 4 10 -8 4 -16 3 -19 -1z"/>
<path d="M1516 1078 c3 -5 10 -6 15 -3 13 9 11 12 -6 12 -8 0 -12 -4 -9 -9z"/>
<path d="M4173 1071 c0 -11 5 -18 9 -15 4 3 5 11 1 19 -7 21 -12 19 -10 -4z"/>
<path d="M1455 1071 c-3 -5 -2 -12 3 -15 5 -3 9 1 9 9 0 17 -3 19 -12 6z"/>
<path d="M510 1040 c0 -5 5 -10 11 -10 5 0 7 5 4 10 -3 6 -8 10 -11 10 -2 0
-4 -4 -4 -10z"/>
<path d="M2376 993 c-6 -14 -5 -15 5 -6 7 7 10 15 7 18 -3 3 -9 -2 -12 -12z"/>
</g>
</svg>
